solid     aadasdaddasdsadsadsa
  facet normal 0.000000e+000 -1.000000e+000 0.000000e+000
    outer loop
      vertex  1.000000e+000 1.000000e+000 1.000000e+000
      vertex  1.000000e+000 1.000000e+000 -6.123234e-017
      vertex  2.000000e+000 1.000000e+000 1.000000e+000
    endloop
  endfacet
  facet normal 0.000000e+000 -1.000000e+000 0.000000e+000
    outer loop
      vertex  2.000000e+000 1.000000e+000 -6.123234e-017
      vertex  2.000000e+000 1.000000e+000 1.000000e+000
      vertex  1.000000e+000 1.000000e+000 -6.123234e-017
    endloop
  endfacet
  facet normal 1.000000e+000 0.000000e+000 0.000000e+000
    outer loop
      vertex  2.000000e+000 2.000000e+000 -1.224647e-016
      vertex  2.000000e+000 1.000000e+000 1.000000e+000
      vertex  2.000000e+000 1.000000e+000 -6.123234e-017
    endloop
  endfacet
  facet normal 1.000000e+000 -0.000000e+000 0.000000e+000
    outer loop
      vertex  2.000000e+000 1.000000e+000 1.000000e+000
      vertex  2.000000e+000 2.000000e+000 -1.224647e-016
      vertex  2.000000e+000 2.000000e+000 1.000000e+000
    endloop
  endfacet
  facet normal 0.000000e+000 -6.123234e-017 -1.000000e+000
    outer loop
      vertex  1.000000e+000 2.000000e+000 -1.224647e-016
      vertex  2.000000e+000 1.000000e+000 -6.123234e-017
      vertex  1.000000e+000 1.000000e+000 -6.123234e-017
    endloop
  endfacet
  facet normal 0.000000e+000 -6.123234e-017 -1.000000e+000
    outer loop
      vertex  2.000000e+000 1.000000e+000 -6.123234e-017
      vertex  1.000000e+000 2.000000e+000 -1.224647e-016
      vertex  2.000000e+000 2.000000e+000 -1.224647e-016
    endloop
  endfacet
  facet normal 0.000000e+000 0.000000e+000 1.000000e+000
    outer loop
      vertex  2.000000e+000 2.000000e+000 1.000000e+000
      vertex  1.000000e+000 1.000000e+000 1.000000e+000
      vertex  2.000000e+000 1.000000e+000 1.000000e+000
    endloop
  endfacet
  facet normal 0.000000e+000 0.000000e+000 1.000000e+000
    outer loop
      vertex  1.000000e+000 1.000000e+000 1.000000e+000
      vertex  2.000000e+000 2.000000e+000 1.000000e+000
      vertex  1.000000e+000 2.000000e+000 1.000000e+000
    endloop
  endfacet
  facet normal -1.000000e+000 -0.000000e+000 0.000000e+000
    outer loop
      vertex  1.000000e+000 2.000000e+000 1.000000e+000
      vertex  1.000000e+000 1.000000e+000 -6.123234e-017
      vertex  1.000000e+000 1.000000e+000 1.000000e+000
    endloop
  endfacet
  facet normal -1.000000e+000 0.000000e+000 -0.000000e+000
    outer loop
      vertex  1.000000e+000 2.000000e+000 1.000000e+000
      vertex  1.000000e+000 2.000000e+000 -1.224647e-016
      vertex  1.000000e+000 1.000000e+000 -6.123234e-017
    endloop
  endfacet
  facet normal 0.000000e+000 1.000000e+000 0.000000e+000
    outer loop
      vertex  2.000000e+000 2.000000e+000 1.000000e+000
      vertex  2.000000e+000 2.000000e+000 -1.224647e-016
      vertex  1.000000e+000 2.000000e+000 -1.224647e-016
    endloop
  endfacet
  facet normal 0.000000e+000 1.000000e+000 0.000000e+000
    outer loop
      vertex  2.000000e+000 2.000000e+000 1.000000e+000
      vertex  1.000000e+000 2.000000e+000 -1.224647e-016
      vertex  1.000000e+000 2.000000e+000 1.000000e+000
    endloop
  endfacet
endsolid vcg
